<svg id="Capa_1" enable-background="new 0 0 512 512" height="512" viewBox="0 0 512 512" width="512" xmlns="http://www.w3.org/2000/svg"><g><path d="m476.159 220.159c0-115.882-89.53-210.853-203.193-219.515l-16.966 9.356-20 263 20 239c63.734 0 98.781-21.245 98.781-21.245v-36.6c63.063 0 114.368-51.305 114.368-114.367 0-14.377-2.674-28.14-7.539-40.826 9.387-24.469 14.549-51.029 14.549-78.803z" fill="#e6dacf"/><path d="m35.841 220.159c0 27.773 5.163 54.334 14.55 78.802-4.865 12.687-7.539 26.449-7.539 40.827 0 63.062 51.305 114.367 114.368 114.367v36.6s35.047 21.245 98.781 21.245v-502l-17.756-9.294c-113.288 9.041-202.404 103.84-202.404 219.453z" fill="#f2eee6"/><path d="m241 411.087h30v42.49h-30z" fill="#1f3c59"/><path d="m161.577 390.423c-30.371 0-54.991-24.62-54.991-54.991 0-26.746 19.243-49.613 45.595-54.183l16.953-2.94c29.218-5.067 54.632 20.348 49.566 49.566l-2.94 16.953c-4.57 26.352-27.438 45.595-54.183 45.595z" fill="#1f3c59"/><path d="m350.423 390.423c30.371 0 54.991-24.62 54.991-54.991 0-26.746-19.243-49.613-45.595-54.183l-16.953-2.94c-29.218-5.067-54.632 20.348-49.566 49.566l2.94 16.953c4.571 26.352 27.438 45.595 54.183 45.595z" fill="#0a2533"/><path d="m274.688 137.71-31.126 46.171 24.875 16.77 48.905-72.543-88.054-52.157 43.677-75.306c-5.598-.427-11.256-.645-16.965-.645-5.978 0-11.898.247-17.755.714l-49.821 85.898z" fill="#d9c9b9"/></g></svg>