<?xml version="1.0" encoding="UTF-8" standalone="no"?>
<!-- Created with Inkscape (http://www.inkscape.org/) -->

<svg
   xmlns:dc="http://purl.org/dc/elements/1.1/"
   xmlns:cc="http://creativecommons.org/ns#"
   xmlns:rdf="http://www.w3.org/1999/02/22-rdf-syntax-ns#"
   xmlns:svg="http://www.w3.org/2000/svg"
   xmlns="http://www.w3.org/2000/svg"
   xmlns:sodipodi="http://sodipodi.sourceforge.net/DTD/sodipodi-0.dtd"
   xmlns:inkscape="http://www.inkscape.org/namespaces/inkscape"
   width="9.7099438mm"
   height="8.7993307mm"
   viewBox="0 0 9.7099444 8.7993301"
   version="1.1"
   id="svg5889"
   inkscape:version="0.92.3 (2405546, 2018-03-11)"
   sodipodi:docname="fish.svg">
  <defs
     id="defs5883" />
  <sodipodi:namedview
     id="base"
     pagecolor="#ffffff"
     bordercolor="#666666"
     borderopacity="1.0"
     inkscape:pageopacity="0.0"
     inkscape:pageshadow="2"
     inkscape:zoom="3.06"
     inkscape:cx="64.886249"
     inkscape:cy="7.552072"
     inkscape:document-units="mm"
     inkscape:current-layer="layer1"
     showgrid="false"
     fit-margin-top="1"
     fit-margin-bottom="1"
     fit-margin-right="1"
     fit-margin-left="1"
     inkscape:window-width="1853"
     inkscape:window-height="1025"
     inkscape:window-x="67"
     inkscape:window-y="27"
     inkscape:window-maximized="1" />
  <metadata
     id="metadata5886">
    <rdf:RDF>
      <cc:Work
         rdf:about="">
        <dc:format>image/svg+xml</dc:format>
        <dc:type
           rdf:resource="http://purl.org/dc/dcmitype/StillImage" />
        <dc:title></dc:title>
      </cc:Work>
    </rdf:RDF>
  </metadata>
  <g
     inkscape:label="Capa 1"
     inkscape:groupmode="layer"
     id="layer1"
     transform="translate(-88.665515,-114.66147)">
    <g
       transform="matrix(0.35277777,0,0,-0.35277777,-67.756993,209.77736)"
       id="g10630">
      <g
         transform="translate(457.7676,266.7852)"
         id="g476">
        <path
           inkscape:connector-curvature="0"
           id="path478"
           style="fill:#93c0ce;fill-opacity:1;fill-rule:nonzero;stroke:none"
           d="m 0,0 c 0,0 -4.121,-0.385 -7.799,-7.908 l 0.285,-0.084 c 3.582,6.823 7.432,7.183 7.432,7.183 1.451,0 1.963,-0.827 2.141,-1.44 l 0.177,0.163 C 2.236,-2.086 2.307,0 0,0" />
      </g>
      <g
         transform="translate(457.6855,265.9766)"
         id="g480">
        <path
           inkscape:connector-curvature="0"
           id="path482"
           style="fill:#80b0bc;fill-opacity:1;fill-rule:nonzero;stroke:none"
           d="m 0,0 c 0,0 -3.85,-0.361 -7.432,-7.184 l 2.461,-0.718 7.112,6.462 C 1.963,-0.827 1.451,0 0,0" />
      </g>
      <g
         transform="translate(459.5781,253.5488)"
         id="g484">
        <path
           inkscape:connector-curvature="0"
           id="path486"
           style="fill:#9ebce3;fill-opacity:1;fill-rule:nonzero;stroke:none"
           d="m 0,0 c 0,0 -0.162,-3.734 -2.801,-3.404 -2.636,0.33 0,3.404 0,3.404 z" />
      </g>
      <g
         transform="translate(452.0547,252.7798)"
         id="g488">
        <path
           inkscape:connector-curvature="0"
           id="path490"
           style="fill:#93c0ce;fill-opacity:1;fill-rule:nonzero;stroke:none"
           d="M 0,0 C 0,0 -0.158,0.861 -0.133,2.14 L -5.164,1.936 c 0,0 -1.043,-0.123 -0.494,-0.947 0.285,-0.423 1.586,-1.934 2.791,-3.305 l 2.953,2.298 C 0.057,-0.012 0.029,-0.006 0,0" />
      </g>
      <g
         transform="translate(449.1875,250.4639)"
         id="g492">
        <path
           inkscape:connector-curvature="0"
           id="path494"
           style="fill:#80b0bc;fill-opacity:1;fill-rule:nonzero;stroke:none"
           d="m 0,0 c 1.137,-1.297 2.182,-2.469 2.182,-2.469 0,0 0.972,-1.251 1.312,0.272 0.19,0.862 0.61,2.837 0.904,4.225 -0.466,0.07 -0.949,0.16 -1.445,0.27 z" />
      </g>
      <g
         transform="translate(453.9844,254.1963)"
         id="g496">
        <path
           inkscape:connector-curvature="0"
           id="path498"
           style="fill:#7e99c7;fill-opacity:1;fill-rule:nonzero;stroke:none"
           d="m 0,0 5.812,4.521 c -0.941,1.236 -1.5,2.778 -1.5,4.453 0,0.576 0.069,1.137 0.194,1.674 C -1.062,8.5 -2.01,3.571 -2.063,0.723 l 1.428,0.058 C 0.168,0.855 0.1,0.312 0,0" />
      </g>
      <g
         transform="translate(459.7969,258.7178)"
         id="g500">
        <path
           inkscape:connector-curvature="0"
           id="path502"
           style="fill:#7590b9;fill-opacity:1;fill-rule:nonzero;stroke:none"
           d="m 0,0 -5.812,-4.521 c -0.04,-0.122 -0.086,-0.208 -0.086,-0.208 0,0 -0.131,-0.635 -0.313,-1.497 5.176,-0.759 8.547,1.046 10.719,3.445 C 2.678,-2.443 1.086,-1.425 0,0" />
      </g>
      <g
         transform="translate(452.0547,252.7798)"
         id="g504">
        <path
           inkscape:connector-curvature="0"
           id="path506"
           style="fill:#7e99c7;fill-opacity:1;fill-rule:nonzero;stroke:none"
           d="M 0,0 C 0.029,-0.006 0.057,-0.012 0.086,-0.018 L 1.93,1.417 C 2.029,1.728 2.098,2.271 1.295,2.198 L -0.133,2.14 C -0.158,0.861 0,0 0,0" />
      </g>
      <g
         transform="translate(453.9844,254.1963)"
         id="g508">
        <path
           inkscape:connector-curvature="0"
           id="path510"
           style="fill:#7590b9;fill-opacity:1;fill-rule:nonzero;stroke:none"
           d="m 0,0 -1.844,-1.434 c 0.496,-0.111 0.979,-0.201 1.446,-0.271 0.181,0.863 0.312,1.497 0.312,1.497 0,0 0.047,0.086 0.086,0.208" />
      </g>
      <g
         transform="translate(467.377,264.6138)"
         id="g512">
        <path
           inkscape:connector-curvature="0"
           id="path514"
           style="fill:#90b0d0;fill-opacity:1;fill-rule:nonzero;stroke:none"
           d="m 0,0 -7.58,-5.896 c 1.086,-1.425 2.678,-2.443 4.508,-2.781 3.131,3.451 3.787,8.123 3.787,8.123 L 0,-0.051 Z" />
      </g>
      <g
         transform="translate(455.9043,263.0225)"
         id="g516">
        <path
           inkscape:connector-curvature="0"
           id="path518"
           style="fill:#b4d1ee;fill-opacity:1;fill-rule:nonzero;stroke:none"
           d="m 0,0 c -2.197,-1.828 -3.467,-4.596 -3.777,-8.225 -0.024,-0.282 0.185,-0.531 0.468,-0.556 0.016,0 0.03,-10e-4 0.043,-10e-4 0.266,0 0.491,0.202 0.514,0.469 0.285,3.341 1.43,5.87 3.398,7.516 0.565,0.47 1.157,0.837 1.75,1.122 C 2.404,0.731 2.449,1.127 2.523,1.512 1.68,1.166 0.812,0.681 0,0" />
      </g>
      <g
         transform="translate(458.4902,264.8447)"
         id="g520">
        <path
           inkscape:connector-curvature="0"
           id="path522"
           style="fill:#9ebce3;fill-opacity:1;fill-rule:nonzero;stroke:none"
           d="m 0,0 c -0.023,-0.102 -0.045,-0.205 -0.062,-0.31 -0.075,-0.385 -0.12,-0.781 -0.127,-1.188 -0.004,-0.058 -0.004,-0.119 -0.004,-0.177 0,-1.675 0.558,-3.217 1.5,-4.452 l 7.58,5.896 V 0.952 C 5.066,1.256 2.18,0.841 0,0" />
      </g>
      <g
         transform="translate(463.6934,262.9834)"
         id="g524">
        <path
           inkscape:connector-curvature="0"
           id="path526"
           style="fill:#3f4c60;fill-opacity:1;fill-rule:nonzero;stroke:none"
           d="m 0,0 c 0,-0.563 -0.457,-1.021 -1.02,-1.021 -0.566,0 -1.021,0.458 -1.021,1.021 0,0.564 0.455,1.021 1.021,1.021 C -0.457,1.021 0,0.564 0,0" />
      </g>
      <g
         transform="translate(462.7949,262.9834)"
         id="g528">
        <path
           inkscape:connector-curvature="0"
           id="path530"
           style="fill:#efefeb;fill-opacity:1;fill-rule:nonzero;stroke:none"
           d="m 0,0 c 0,-0.263 -0.211,-0.476 -0.475,-0.476 -0.263,0 -0.474,0.213 -0.474,0.476 0,0.263 0.211,0.475 0.474,0.475 C -0.211,0.475 0,0.263 0,0" />
      </g>
      <g
         transform="translate(454.0469,257.6562)"
         id="g532">
        <path
           inkscape:connector-curvature="0"
           id="path534"
           style="fill:#d1e6f6;fill-opacity:1;fill-rule:nonzero;stroke:none"
           d="m 0,0 c -0.148,-0.554 -0.555,-0.928 -0.906,-0.834 -0.354,0.094 -0.518,0.62 -0.371,1.174 0.15,0.556 0.552,0.93 0.906,0.834 C -0.018,1.08 0.146,0.554 0,0" />
      </g>
    </g>
  </g>
</svg>
